<?xml version="1.0" encoding="UTF-8" standalone="no"?>
<!-- Generator: Adobe Illustrator 19.0.0, SVG Export Plug-In . SVG Version: 6.00 Build 0)  -->

<svg
   xmlns:dc="http://purl.org/dc/elements/1.1/"
   xmlns:cc="http://creativecommons.org/ns#"
   xmlns:rdf="http://www.w3.org/1999/02/22-rdf-syntax-ns#"
   xmlns:svg="http://www.w3.org/2000/svg"
   xmlns="http://www.w3.org/2000/svg"
   xmlns:sodipodi="http://sodipodi.sourceforge.net/DTD/sodipodi-0.dtd"
   xmlns:inkscape="http://www.inkscape.org/namespaces/inkscape"
   version="1.1"
   id="Layer_1"
   x="0px"
   y="0px"
   viewBox="0 0 426.00001 200"
   xml:space="preserve"
   sodipodi:docname="logo-treme-negativo.svg"
   width="426"
   height="200"
   inkscape:export-filename="/home/mzito/dev/learn/vue/vuetify-grip/src/assets/logos/logo-treme-negativo.svg.png"
   inkscape:export-xdpi="96"
   inkscape:export-ydpi="96"
   inkscape:version="0.92.3 (2405546, 2018-03-11)"><metadata
   id="metadata21"><rdf:RDF><cc:Work
       rdf:about=""><dc:format>image/svg+xml</dc:format><dc:type
         rdf:resource="http://purl.org/dc/dcmitype/StillImage" /><dc:title></dc:title></cc:Work></rdf:RDF></metadata><defs
   id="defs19" /><sodipodi:namedview
   pagecolor="#ffffff"
   bordercolor="#666666"
   borderopacity="1"
   objecttolerance="10"
   gridtolerance="10"
   guidetolerance="10"
   inkscape:pageopacity="0"
   inkscape:pageshadow="2"
   inkscape:window-width="1402"
   inkscape:window-height="767"
   id="namedview17"
   showgrid="false"
   inkscape:zoom="0.67729911"
   inkscape:cx="136.57186"
   inkscape:cy="100"
   inkscape:window-x="0"
   inkscape:window-y="0"
   inkscape:window-maximized="0"
   inkscape:current-layer="Layer_1" />
<style
   type="text/css"
   id="style2">
	.st0{fill:#212121;}
	.st1{fill:#FFFFFF;}
	.st2{fill:#28EB98;}
	.st3{fill:#F7725C;}
</style>

<g
   id="XMLID_80_"
   transform="translate(-28)">
	<g
   id="XMLID_555_">
		<path
   id="XMLID_565_"
   class="st1"
   d="m 211.6,74.6 c -12.9,0 -23.4,10.5 -23.4,23.4 v 43.9 c 0,2 1.6,3.6 3.6,3.6 2,0 3.6,-1.6 3.6,-3.6 V 98 c 0,-8.9 7.2,-16.1 16.1,-16.1 2,0 3.6,-1.6 3.6,-3.6 0.1,-2.1 -1.5,-3.7 -3.5,-3.7 z"
   inkscape:connector-curvature="0"
   style="fill:#ffffff" />
		<path
   id="XMLID_564_"
   class="st1"
   d="m 353.7,74.6 c -8,0 -15.5,4.1 -19.8,10.9 -4.3,-6.8 -11.7,-10.9 -19.8,-10.9 -12.9,0 -23.4,10.5 -23.4,23.4 v 43.9 c 0,2 1.6,3.6 3.6,3.6 2,0 3.6,-1.6 3.6,-3.6 V 98 c 0,-8.9 7.2,-16.1 16.1,-16.1 8.9,0 16.1,7.2 16.1,16.1 v 43.9 c 0,2 1.6,3.6 3.6,3.6 2,0 3.6,-1.6 3.6,-3.6 V 98 c 0,-8.9 7.2,-16.1 16.1,-16.1 8.9,0 16.1,7.2 16.1,16.1 v 43.9 c 0,2 1.6,3.6 3.6,3.6 2,0 3.6,-1.6 3.6,-3.6 V 98 c 0.4,-12.9 -10.1,-23.4 -23,-23.4 z"
   inkscape:connector-curvature="0"
   style="fill:#ffffff" />
		<path
   id="XMLID_561_"
   class="st1"
   d="m 281,122.7 c -0.8,-0.5 -1.8,-0.7 -2.8,-0.5 -0.9,0.2 -1.7,0.8 -2.3,1.6 -5.1,8.1 -13.8,13 -23.4,13 -5.7,0 -11.2,-1.7 -15.9,-5.1 L 277.3,90 c 1.4,-1.4 1.4,-3.7 -0.1,-5.1 l -1,-0.9 c -6.5,-6 -14.9,-9.3 -23.7,-9.3 -19.2,0 -34.8,15.6 -34.8,34.8 0,19.2 15.6,34.8 34.8,34.8 12.1,0 23.2,-6.1 29.6,-16.4 0.5,-0.8 0.7,-1.8 0.5,-2.7 -0.2,-1.2 -0.8,-2 -1.6,-2.5 z m -49.7,4.1 c -4.1,-4.9 -6.3,-11.1 -6.3,-17.5 0,-15.2 12.3,-27.5 27.5,-27.5 6.1,0 12.1,2 16.9,5.8 z"
   inkscape:connector-curvature="0"
   style="fill:#ffffff" />
		<path
   id="XMLID_560_"
   class="st1"
   d="m 169,136.5 h -4.9 c -8.9,0 -16.1,-7.2 -16.1,-16.1 V 81.7 h 19.9 c 2,0 3.6,-1.6 3.6,-3.6 0,-2 -1.6,-3.6 -3.6,-3.6 H 148 V 53.2 c 0,-2 -1.6,-3.6 -3.6,-3.6 -2,0 -3.6,1.6 -3.6,3.6 v 67.2 c 0,12.9 10.5,23.4 23.4,23.4 h 4.9 c 2,0 3.6,-1.6 3.6,-3.6 -0.1,-2 -1.7,-3.7 -3.7,-3.7 z"
   inkscape:connector-curvature="0"
   style="fill:#ffffff" />
		<path
   id="XMLID_559_"
   class="st1"
   d="m 408.6,69.5 c 0.8,0 1.6,-0.3 2.3,-0.8 l 19.4,-15.5 c 1.6,-1.3 1.8,-3.6 0.6,-5.1 -1.3,-1.6 -3.6,-1.8 -5.1,-0.6 L 406.3,63 c -1.6,1.3 -1.8,3.6 -0.6,5.1 0.8,0.9 1.8,1.4 2.9,1.4 z"
   inkscape:connector-curvature="0"
   style="fill:#ffffff" />
		<path
   id="XMLID_556_"
   class="st1"
   d="m 452.6,125 c -0.2,-0.9 -0.8,-1.8 -1.6,-2.3 -1.7,-1.1 -4,-0.5 -5,1.2 -5.1,8.1 -13.8,13 -23.4,13 -5.7,0 -11.2,-1.7 -15.9,-5.1 L 447.4,90 c 1.4,-1.4 1.4,-3.7 -0.1,-5.1 l -1,-0.9 c -6.5,-6 -14.9,-9.3 -23.7,-9.3 -19.2,0 -34.8,15.6 -34.8,34.8 0,19.2 15.6,34.8 34.8,34.8 12.1,0 23.2,-6.1 29.6,-16.4 0.5,-1 0.6,-2 0.4,-2.9 z m -13.1,-37.4 -38.1,39.2 c -4.1,-4.9 -6.3,-11.1 -6.3,-17.5 0,-15.2 12.3,-27.5 27.5,-27.5 6.1,0 12.1,2.1 16.9,5.8 z"
   inkscape:connector-curvature="0"
   style="fill:#ffffff" />
	</g>
	<g
   id="XMLID_486_">
		<path
   id="XMLID_552_"
   class="st2"
   d="m 55.8,104.9 c -2.2,0 -4.5,-0.8 -6.2,-2.5 C 46.1,99 46,93.4 49.4,89.9 L 68.7,70 C 79.9,58.8 97.9,58.8 108.9,69.9 l 3,2.9 c 3.5,3.4 3.6,9 0.2,12.5 -3.4,3.5 -9,3.6 -12.5,0.2 l -3.1,-3 c -4.2,-4.2 -11,-4.2 -15.2,-0.1 l -19.2,19.7 c -1.6,1.9 -4,2.8 -6.3,2.8 z"
   inkscape:connector-curvature="0"
   style="fill:#28eb98" />
		<path
   id="XMLID_487_"
   class="st3"
   d="m 55.8,137.7 c -7.3,0 -14.5,-2.8 -20,-8.3 l -3,-2.9 c -3.5,-3.4 -3.6,-9 -0.2,-12.5 3.4,-3.5 9,-3.6 12.5,-0.2 l 3.1,3 c 4.3,4.2 11,4.2 15.2,0.1 L 82.6,97.2 c 3.4,-3.5 9,-3.6 12.5,-0.2 3.5,3.4 3.6,9 0.2,12.5 L 76,129.3 c -5.6,5.6 -12.9,8.4 -20.2,8.4 z"
   inkscape:connector-curvature="0"
   style="fill:#f7725c" />
	</g>
</g>
</svg>